<svg xmlns="http://www.w3.org/2000/svg" width="66" height="66" stroke="#dadada" stroke-linecap="round" stroke-linejoin="round" fill="#dadada" fill-rule="evenodd"><path stroke-opacity="0" d="M-.5-.5h6v6h-6zm12 0h6v6h-6zm12 0h6v6h-6zm12 0h6v6h-6zm12 0h6v6h-6zm12 0h6v6h-6zm-60 12h6v6h-6zm12 0h6v6h-6zm12 0h6v6h-6zm12 0h6v6h-6zm12 0h6v6h-6zm12 0h6v6h-6zm-60 12h6v6h-6zm0 12h6v6h-6zm0 12h6v6h-6zm0 12h6v6h-6zm12-36h6v6h-6zm0 12h6v6h-6zm0 12h6v6h-6zm0 12h6v6h-6z"/><path stroke-opacity="0" d="M5.5 5.5h6v6h-6zm0 12h6v6h-6zm0 12h6v6h-6zm0 12h6v6h-6zm0 12h6v6h-6zm12-48h6v6h-6zm12 0h6v6h-6zm12 0h6v6h-6zm12 0h6v6h-6z"/></svg>