<svg xmlns="http://www.w3.org/2000/svg" id="draw.id" fill="#ffffff" overflow="visible" stroke="#000000" v:layers="{&quot;default&quot;:{&quot;name&quot;:&quot;Default&quot;,&quot;print&quot;:0,&quot;display&quot;:1,&quot;publish&quot;:0}}" v:ver="3" x="500.5" y="500.5" v:stencils="{&quot;0&quot;:{&quot;id&quot;:&quot;stencil_25&quot;,&quot;expand&quot;:1,&quot;show_name&quot;:1},&quot;1&quot;:{&quot;id&quot;:&quot;stencil_65&quot;,&quot;expand&quot;:1,&quot;show_name&quot;:1}}" xmlns:v="http://vecta.io"><style xmlns="http://www.w3.org/1999/xhtml"><![CDATA[#draw\.id{stroke:#000;stroke-linecap:round;stroke-linejoin:round;fill:#fff;fill-rule:evenodd;font-family:Roboto;font-size:14px;text-anchor:middle}#draw\.id text{paint-order:stroke;white-space:pre}#draw\.id .Text\.cls{stroke:none}]]></style><defs><style type="text/css">@import url('https://fonts.googleapis.com/css?family=Roboto+Condensed:400,400i,700,700i');@import url('https://fonts.googleapis.com/css?family=Roboto:400,400i,700,700i');@import url('https://fonts.googleapis.com/css?family=Cousine:400,400i,700,700i');@import url('https://fonts.googleapis.com/css?family=Anonymous+Pro:400,400i,700,700i');@import url('https://fonts.googleapis.com/css?family=Lato:400,400i,700,700i');@import url('https://fonts.googleapis.com/css?family=Open+Sans:400,400i,700,700i');</style><linearGradient id="L00100100000aaff10000387f.grad" x1="0%" y1="0%" x2="100%" y2="100%"><stop offset="0%" stop-color="#00aaff" stop-opacity="1"/><stop offset="100%" stop-color="#00387f" stop-opacity="1"/></linearGradient><linearGradient id="L001001000808080100000000.grad" x1="0%" y1="0%" x2="100%" y2="100%"><stop offset="0%" stop-color="#808080" stop-opacity="1"/><stop offset="100%" stop-color="#000000" stop-opacity="1"/></linearGradient><linearGradient id="L001001000808080100100000000100.grad" x1="0%" y1="0%" x2="100%" y2="100%"><stop offset="0%" stop-color="#808080" stop-opacity="1"/><stop offset="100%" stop-color="#000000" stop-opacity="1"/></linearGradient><linearGradient id="L001001000f1a9eb100672965.grad" x1="0%" y1="0%" x2="100%" y2="100%"><stop offset="0%" stop-color="#f1a9eb" stop-opacity="1"/><stop offset="100%" stop-color="#672965" stop-opacity="1"/></linearGradient><linearGradient id="L001001000ffd194100d1913c.grad" x1="0%" y1="0%" x2="100%" y2="100%"><stop offset="0%" stop-color="#ffd194"/><stop offset="100%" stop-color="#d1913c"/></linearGradient><linearGradient id="L06710033090a4ae100ECEFF1.grad" x1="0%" y1="67%" x2="100%" y2="33%"><stop offset="0%" stop-color="#90a4ae"/><stop offset="100%" stop-color="#ECEFF1"/></linearGradient><linearGradient id="L0941006090a4ae100B0BEC5.grad" x1="0%" y1="94%" x2="100%" y2="6%"><stop offset="0%" stop-color="#90a4ae"/><stop offset="100%" stop-color="#B0BEC5"/></linearGradient><linearGradient id="L100100000578fff1008ab1ff.grad" x1="100%" y1="100%" x2="0%" y2="0%"><stop offset="0%" stop-color="#578fff"/><stop offset="100%" stop-color="#8ab1ff"/></linearGradient><linearGradient id="L10010000057c7ff1008ad8ff.grad" x1="100%" y1="100%" x2="0%" y2="0%"><stop offset="0%" stop-color="#57c7ff"/><stop offset="100%" stop-color="#8ad8ff"/></linearGradient><linearGradient id="L10010000057ffff1008affff.grad" x1="100%" y1="100%" x2="0%" y2="0%"><stop offset="0%" stop-color="#57ffff"/><stop offset="100%" stop-color="#8affff"/></linearGradient><linearGradient id="L1001000008fff57100b1ff8a.grad" x1="100%" y1="100%" x2="0%" y2="0%"><stop offset="0%" stop-color="#8fff57"/><stop offset="100%" stop-color="#b1ff8a"/></linearGradient><linearGradient id="L100100000c757ff100d88aff.grad" x1="100%" y1="100%" x2="0%" y2="0%"><stop offset="0%" stop-color="#c757ff"/><stop offset="100%" stop-color="#d88aff"/></linearGradient><linearGradient id="L100100000c7ff57100d8ff8a.grad" x1="100%" y1="100%" x2="0%" y2="0%"><stop offset="0%" stop-color="#c7ff57"/><stop offset="100%" stop-color="#d8ff8a"/></linearGradient><linearGradient id="L100100000ff578f100ff8ab1.grad" x1="100%" y1="100%" x2="0%" y2="0%"><stop offset="0%" stop-color="#ff578f"/><stop offset="100%" stop-color="#ff8ab1"/></linearGradient><linearGradient id="L100100000ff57e3100ff8aeb.grad" x1="100%" y1="100%" x2="0%" y2="0%"><stop offset="0%" stop-color="#ff57e3"/><stop offset="100%" stop-color="#ff8aeb"/></linearGradient><linearGradient id="L100100000ff7357100ff9d8a.grad" x1="100%" y1="100%" x2="0%" y2="0%"><stop offset="0%" stop-color="#ff7357"/><stop offset="100%" stop-color="#ff9d8a"/></linearGradient><linearGradient id="L100100000ffab57100ffc48a.grad" x1="100%" y1="100%" x2="0%" y2="0%"><stop offset="0%" stop-color="#ffab57"/><stop offset="100%" stop-color="#ffc48a"/></linearGradient><linearGradient id="L100100000ffe357100ffeb8a.grad" x1="100%" y1="100%" x2="0%" y2="0%"><stop offset="0%" stop-color="#ffe357"/><stop offset="100%" stop-color="#ffeb8a"/></linearGradient><linearGradient id="L100100000ffff57100ffff8a.grad" x1="100%" y1="100%" x2="0%" y2="0%"><stop offset="0%" stop-color="#ffff57"/><stop offset="100%" stop-color="#ffff8a"/></linearGradient><linearGradient id="L170831000E0E0E0100757575.grad" x1="17%" y1="0%" x2="83%" y2="100%"><stop offset="0%" stop-color="#E0E0E0"/><stop offset="100%" stop-color="#757575"/></linearGradient><linearGradient id="L5005010004387FD1004683EA.grad" x1="50%" y1="0%" x2="50%" y2="100%"><stop offset="0%" stop-color="#4387FD"/><stop offset="100%" stop-color="#4683EA"/></linearGradient><linearGradient id="L611003900000000100100808080100.grad" x1="61%" y1="100%" x2="39%" y2="0%"><stop offset="0%" stop-color="#000000" stop-opacity="1"/><stop offset="100%" stop-color="#808080" stop-opacity="1"/></linearGradient><clipPath id="jw8nw00y2b8.clip"><path d="M 0 15 C 0 6.69 6.69 0 15 0 L 399 0 C 407.31 0 414 6.69 414 15 L 414 813 C 414 821.31 407.31 828 399 828 L 15 828 C 6.69 828 0 821.31 0 813 Z" stroke="hsla(0,0%,100%,1)" stroke-width="1" transform="translate(0 0)"/></clipPath><clipPath id="jw8nwu5f2en.clip"><path d="M 480 947.0445 C 480 966 463.5 986 440.1188 986 L 40.1346 986 C 10 986 0 960 0 949.9712 L 0 39.7345 C 0 16 20 0 39.7865 0 L 130.3007 0 C 139.25 0 145 7.75 145 14.1357 L 145 14 C 145 30.62 158.38 44 175 44 L 305 44 C 321.62 44 335 30.62 335 14 L 335 13.8857 C 335 8.75 340 0 349.9493 0 L 439.7751 0 C 464.5 0 480 20.5 480 39.9367 Z" stroke="hsla(0,0%,100%,1)" stroke-width="1" transform="translate(0 0)"/></clipPath><clipPath id="jw8nxjem3h1.clip"><path d="M 0 40 C 0 17.84 17.84 0 40 0 L 374 0 C 396.16 0 414 17.84 414 40 L 414 834 C 414 856.16 396.16 874 374 874 L 40 874 C 17.84 874 0 856.16 0 834 Z" stroke="hsla(0,0%,100%,1)" transform="translate(1.1517835812563817 3)"/></clipPath><clipPath id="jw8ny4f43i0.clip"><path d="M 0 40 C 0 17.84 17.84 0 40 0 L 440 0 C 462.16 0 480 17.84 480 40 L 480 973 C 480 995.16 462.16 1013 440 1013 L 40 1013 C 17.84 1013 0 995.16 0 973 Z" stroke="hsla(0,0%,100%,1)" stroke-width="1" transform="translate(6 8.642899999999997)"/></clipPath><clipPath id="jw8o1udg4wt.clip"><path d="M 43.54657451923149 0 L 149.36523437499966 0 C 180.34197716346247 0 180.34197716346247 30.062344341105906 206.68347355769168 30.062344341105906 C 233.02496995192348 30.062344341105906 233.02496995192348 0 264.0775615985576 0 L 375.48191105769286 0 C 390.62403846153893 0 396.11487379807704 1.5754000230444005 401.65063100961584 4.533742296454201 C 407.18638822115395 7.4920414082198015 411.530851862981 11.833239608706302 414.4913762019235 17.364835963593304 C 417.45190054086584 22.896389156836005 419.02848557692346 28.383140563119007 419.02848557692346 43.51388664745901 L 419.02848557692346 839.0223144317017 C 419.02848557692346 854.1529741927511 417.45190054086584 859.6397687606808 414.4913762019235 865.171365115567 C 411.530851862981 870.7028751471631 407.18638822115395 875.0440733476512 401.65063100961584 878.0024587827053 C 396.11487379807704 880.9607578944717 390.62403846153893 882.5361579175152 375.48191105769286 882.5361579175152 L 43.54657451923149 882.5361579175152 C 28.404447115384198 882.5361579175152 22.913611778847397 880.9607578944717 17.377854567307896 878.0024587827053 C 11.842097355768498 875.0440733476512 7.497633713942099 870.7028751471631 4.537109374999999 865.171365115567 C 1.5765850360578997 859.6397687606808 0 854.1529741927511 0 839.0223144317017 L 0 43.51388664745901 C 0 28.383140563119007 1.5765850360578997 22.896389156836005 4.537109374999999 17.364835963593304 C 7.497633713942099 11.833239608706302 11.842097355768498 7.4920414082198015 17.377854567307896 4.533742296454201 C 22.913611778847397 1.5754000230444005 28.404447115384198 0 43.54657451923149 0 Z" fill="hsla(0,0%,20%,1)" stroke="none" transform="translate(0 0)"/></clipPath><clipPath id="jw8pi2jcloi.clip"><path d="M 335.8927317333333 814.0000000000001 C 362.464 814.0000000000001 376 790.972109720438 376 774.0900697557959 L 376 39.9095124786729 C 376 15.5326649749132 354.944 0.0138998239484 336.1203370666667 0.0138998239484 L 298.2586410666667 0.0138998239484 C 296.288 0.0138998239484 292.7786666666667 2.3917210306186 292.7943082666667 5.7074945327155 C 292.7786666666667 7.1475636899658 292.7786666666667 8.3184020911954 292.7786666666667 10.0259999134094 C 292.7786666666667 21.1194284391008 283.83488 30.0503002153345 272.7253333333333 30.0503002153345 L 103.2746666666667 30.0503002153345 C 92.16512 30.0503002153345 83.2213333333333 21.1194284391008 83.2213333333333 10.0259999134094 C 83.2213333333333 7.9584598941353 83.2213333333333 8.5241548630892 83.2320618666667 6.3454783100915 C 83.2213333333333 2.0162597680386 79.8373333333333 0.0138998239484 77.4965077333333 0.0138998239484 L 39.9373162666667 0.0138998239484 C 23.0613333333333 -0.4867151928249 0 12.5290749972763 0 40.0629009198122 L 0 774.0901698787992 C 0 797.9806198322619 19.552 814.0000000000001 40.107168 814.0000000000001 Z" stroke="hsla(0,0%,100%,1)" stroke-width="1" transform="translate(1.6289867642501576 1)"/></clipPath><clipPath id="jw8pmnlrt78.clip"><path d="M 369.8393 895.9999976352831 C 399.096 895.9999976352831 414 870.652297635283 414 852.0696976352831 L 414 43.9298976352831 C 414 17.097397635283 390.816 0.015297635283 370.0899 0.015297635283 L 328.4018 0.015297635283 C 326.232 0.015297635283 322.368 2.632697635283 322.3852 6.282497635283 C 322.368 7.867597635283 322.368 9.156397635283 322.368 11.035997635283 C 322.368 23.246897635283 312.5203 33.0774976352831 300.288 33.0774976352831 L 113.712 33.0774976352831 C 101.4797 33.0774976352831 91.632 23.246897635283 91.632 11.035997635283 C 91.632 8.760197635283 91.632 9.382897635283 91.6438 6.984697635283 C 91.632 2.219397635283 87.906 0.015297635283 85.3286 0.015297635283 L 43.9735 0.015297635283 C 25.392 -0.535702364717 0 13.791197635283 0 44.0986976352831 L 0 852.0697976352831 C 0 878.3668976352831 21.528 895.9999976352831 44.1606 895.9999976352831 Z" stroke="hsla(0,0%,100%,1)" stroke-width="1" transform="translate(0.9199223449481906 1.0000011823585737)"/></clipPath><clipPath id="jw8uzo6nb9b.clip"><rect x="0" y="0" width="480" height="1040" stroke-width="0.2" stroke="none" rx="40" class="" transform="translate(0.999964282226756 1.16666664971126)"/></clipPath><clipPath id="jwpugewnio.clip"><path d="M 0 0 L 375 0 L 375 667 L 0 667 Z" fill="hsla(240,8%,12%,1)" fill-opacity="1" stroke="hsla(0,0%,75%,1)" stroke-linejoin="miter" stroke-width="1" transform="translate(146.49997790527343 1)"/></clipPath><clipPath id="jwpuhbtxk8.clip"><path d="M 0 0 L 414 0 L 414 736 L 0 736 Z" stroke="hsla(0,0%,75%,1)" stroke-linejoin="miter" stroke-width="1" transform="translate(161.99995786132808 1)"/></clipPath><g id="many.end"><path d="M -5 0 L 0 7.5 L 5 0" fill="none"/></g></defs><title xmlns="http://www.w3.org/1999/xhtml">React_logo</title><desc xmlns="http://www.w3.org/1999/xhtml"></desc><svg id="kvtkws1fu4" height="634.9606475830078" overflow="visible" v:setup="{&quot;paper&quot;:&quot;CUSTOM&quot;,&quot;unit&quot;:&quot;px&quot;,&quot;scale&quot;:{&quot;from&quot;:1,&quot;to&quot;:1},&quot;width&quot;:&quot;297mm&quot;,&quot;height&quot;:&quot;210mm&quot;}" viewBox="0 0 1122.5197162628174 793.7008094787598" width="898.015773010254" class="" style="display: none;"><g id="kvwk0ynkkj" class="Group.cls NoPrint.cls" transform="translate(9.062652587890625 13.518177838929688)" v:abox="{&quot;x&quot;:9.062652587890625,&quot;y&quot;:13.518177838929688,&quot;width&quot;:101.87469482421875,&quot;height&quot;:32.963644322140624}"><g class="Prim.cls"><g id="kvwk0yn0k9" class="NoPrint.cls" transform="translate(15.15447998046875 12.973560921457235)"><path d="M 0 3.4755859375 C 0 1.55010986328125 1.55010986328125 0 3.47552490234375 0 C 5.4010009765625 0 6.95111083984375 1.55010986328125 6.95111083984375 3.4755859375 C 6.95111083984375 5.40106201171875 5.4010009765625 6.951171875 3.47552490234375 6.951171875 C 1.55010986328125 6.951171875 0 5.40106201171875 0 3.4755859375 Z" fill="#00d8ff" stroke="none" stroke-linecap="butt" stroke-linejoin="miter" stroke-width="0.06927997653174381"/></g><g id="kvwk0yn2ka" class="NoPrint.cls" transform="translate(0 9.382557503488485)"><path d="M 18.630126953125 0 C 23.2965087890625 0 27.63153076171875 0.66961669921875 30.90008544921875 1.79486083984375 C 34.83819580078125 3.15069580078125 37.25958251953125 5.20574951171875 37.25958251953125 7.06658935546875 C 37.25958251953125 9.0057373046875 34.69342041015625 11.18896484375 30.46435546875 12.59014892578125 C 27.26708984375 13.6494140625 23.0596923828125 14.20245361328125 18.630126953125 14.20245361328125 C 14.0885009765625 14.20245361328125 9.78790283203125 13.68341064453125 6.5545654296875 12.5784912109375 C 2.4638671875 11.1802978515625 0 8.96881103515625 0 7.06658935546875 C 0 5.2208251953125 2.3118896484375 3.181640625 6.1947021484375 1.82794189453125 C 9.4754638671875 0.68408203125 13.91748046875 0 18.62945556640625 0 Z" fill="none" stroke="#00d8ff" stroke-linecap="butt" stroke-linejoin="miter" stroke-width="1.6627194367618516"/></g><g id="kvwk0yn3kb" class="NoPrint.cls" transform="translate(7.520693979550366 0)"><path d="M 4.957760610293384 12.936207405832235 C 7.288998403262134 8.893910042550985 10.034603872012134 5.473133675363485 12.642269887637134 3.203785530832235 C 15.784115590762134 0.46959363630098494 18.774044789980884 -0.6012071449490151 20.385983266543384 0.32829724958223494 C 22.065914907168384 1.297047249582235 22.675167836855884 4.610767952707235 21.776242055605884 8.974171273019735 C 21.097286977480884 12.273182503488485 19.473812856387134 16.193958870675985 17.260861196230884 20.031300179269735 C 14.991940297793384 23.965565315988485 12.393917836855884 27.431751839425985 9.821774282168384 29.680042855050985 C 6.567013539980884 32.525196663644735 3.420285024355884 33.554859749582235 1.7724578759183842 32.604542366769735 C 0.17345885248088422 31.683155648019735 -0.4379913428316158 28.661121956613485 0.3290985009183842 24.621204964425985 C 0.9772308251371342 21.207752815988485 2.603695668887134 17.018055550363485 4.956967153262134 12.936146370675985 Z" fill="none" stroke="#00d8ff" stroke-linecap="butt" stroke-linejoin="miter" stroke-width="1.6627194367618516"/></g><g id="kvwk0yn3kc" class="NoPrint.cls" transform="translate(7.530424079087551 0.03772831164223689)"><path d="M 4.953828850599949 20.003886809033748 C 2.6159992607561993 15.966106047314998 1.0242634209124493 11.878215422314998 0.35989574513119926 8.485698332471248 C -0.43990894236880074 4.398173918408748 0.12558178028744926 1.272990812939998 1.7360554130999493 0.34073983637749805 C 3.4142780693499493 -0.630817780810002 6.589448967787449 0.49619637934624805 9.9208088310687 3.454204191846248 C 12.43954662403745 5.690532316846248 15.0259113701312 9.054545988721248 17.245271721693697 12.888225187939998 C 19.520723381849947 16.818706144971248 21.226106682631197 20.800700773877498 21.889558831068697 24.151958098096248 C 22.729036370131197 28.392741789502498 22.049593010756197 31.633037199658748 20.403291741224947 32.586101164502494 C 18.805879631849947 33.510844816846244 15.88278392872495 32.531779875439994 12.76584056934995 29.849528898877498 C 10.13229564747495 27.583354582471248 7.314790764662449 24.081767668408748 4.953828850599949 20.003764738721248 Z" fill="none" stroke="#00d8ff" stroke-linecap="butt" stroke-linejoin="miter" stroke-width="1.6627194367618516"/></g><g id="kvwk0yn4kd" class="NoPrint.cls" transform="translate(45.75762939453125 9.536976448800985)"><path d="M 11.4520263671875 15.7919921875 L 7.1920166015625 9.35595703125 C 9.34503173828125 9.16595458984375 11.2850341796875 7.60595703125 11.2850341796875 4.7559814453125 C 11.2850341796875 1.85595703125 9.22705078125 0 6.34002685546875 0 L 0 0 L 0 15.77996826171875 L 1.96405029296875 15.77996826171875 L 1.96405029296875 9.50994873046875 L 5.11102294921875 9.50994873046875 L 9.133056640625 15.77996826171875 Z M 6.10504150390625 7.79498291015625 L 1.96502685546875 7.79498291015625 L 1.96502685546875 1.761962890625 L 6.10504150390625 1.761962890625 C 7.97503662109375 1.761962890625 9.25201416015625 2.991943359375 9.25201416015625 4.7669677734375 C 9.25201416015625 6.5419921875 7.9739990234375 7.7969970703125 6.10504150390625 7.7969970703125 Z M 18.7630615234375 16.074951171875 C 20.633056640625 16.074951171875 22.1700439453125 15.4599609375 23.3060302734375 14.324951171875 L 22.45404052734375 13.16497802734375 C 21.55401611328125 14.08795166015625 20.23004150390625 14.60797119140625 18.92901611328125 14.60797119140625 C 16.46905517578125 14.60797119140625 14.95404052734375 12.80999755859375 14.81201171875 10.657958984375 L 24.06201171875 10.657958984375 L 24.06201171875 10.20794677734375 C 24.06201171875 6.7779541015625 22.02703857421875 4.0799560546875 18.572021484375 4.0799560546875 C 15.3070068359375 4.0799560546875 12.9420166015625 6.75396728515625 12.9420166015625 10.06597900390625 C 12.9420166015625 13.63897705078125 15.3790283203125 16.06597900390625 18.76202392578125 16.06597900390625 Z M 22.31304931640625 9.35498046875 L 14.81304931640625 9.35498046875 C 14.90802001953125 7.60498046875 16.113037109375 5.54498291015625 18.551025390625 5.54498291015625 C 21.154052734375 5.54498291015625 22.2890625 7.6510009765625 22.31304931640625 9.35498046875 Z M 35.8470458984375 15.79095458984375 L 35.8470458984375 7.93597412109375 C 35.8470458984375 5.16796875 33.8370361328125 4.0789794921875 31.42303466796875 4.0789794921875 C 29.55303955078125 4.0789794921875 28.0870361328125 4.6939697265625 26.8570556640625 5.97198486328125 L 27.68505859375 7.20196533203125 C 28.7020263671875 6.11395263671875 29.8150634765625 5.616943359375 31.18701171875 5.616943359375 C 32.843017578125 5.616943359375 34.07403564453125 6.491943359375 34.07403564453125 8.02996826171875 L 34.07403564453125 10.08795166015625 C 33.1510009765625 9.02294921875 31.85003662109375 8.5260009765625 30.28802490234375 8.5260009765625 C 28.3480224609375 8.5260009765625 26.28802490234375 9.73297119140625 26.28802490234375 12.2879638671875 C 26.28802490234375 14.77197265625 28.34600830078125 16.073974609375 30.28802490234375 16.073974609375 C 31.8260498046875 16.073974609375 33.1280517578125 15.52996826171875 34.07403564453125 14.48895263671875 L 34.07403564453125 15.7889404296875 Z M 30.927001953125 14.7969970703125 C 29.27105712890625 14.7969970703125 28.11102294921875 13.7569580078125 28.11102294921875 12.31298828125 C 28.11102294921875 10.845947265625 29.27105712890625 9.80499267578125 30.927001953125 9.80499267578125 C 32.1810302734375 9.80499267578125 33.38702392578125 10.2779541015625 34.07403564453125 11.2249755859375 L 34.07403564453125 13.37799072265625 C 33.3880615234375 14.323974609375 32.1810302734375 14.7979736328125 30.927001953125 14.7979736328125 Z M 44.427001953125 16.074951171875 C 46.509033203125 16.074951171875 47.739013671875 15.22296142578125 48.61505126953125 14.08795166015625 L 47.4320068359375 13 C 46.675048828125 14.0169677734375 45.70501708984375 14.489990234375 44.53204345703125 14.489990234375 C 42.09503173828125 14.489990234375 40.58203125 12.59698486328125 40.58203125 10.06597900390625 C 40.58203125 7.53497314453125 42.09600830078125 5.66595458984375 44.53204345703125 5.66595458984375 C 45.71502685546875 5.66595458984375 46.68505859375 6.115966796875 47.4320068359375 7.15594482421875 L 48.61505126953125 6.0679931640625 C 47.74005126953125 4.93194580078125 46.509033203125 4.08099365234375 44.427001953125 4.08099365234375 C 41.02001953125 4.08099365234375 38.72503662109375 6.6839599609375 38.72503662109375 10.06695556640625 C 38.72503662109375 13.4739990234375 41.02001953125 16.06695556640625 44.427001953125 16.06695556640625 Z M 53.987060546875 16.074951171875 C 55.02703857421875 16.074951171875 55.66705322265625 15.7669677734375 56.1170654296875 15.34197998046875 L 55.5970458984375 14.0169677734375 C 55.36004638671875 14.2769775390625 54.89703369140625 14.489990234375 54.3900146484375 14.489990234375 C 53.61004638671875 14.489990234375 53.23004150390625 13.875 53.23004150390625 13.02294921875 L 53.23004150390625 5.92498779296875 L 55.550048828125 5.92498779296875 L 55.550048828125 4.36395263671875 L 53.23004150390625 4.36395263671875 L 53.23004150390625 1.240966796875 L 51.45501708984375 1.240966796875 L 51.45501708984375 4.36395263671875 L 49.56201171875 4.36395263671875 L 49.56201171875 5.92596435546875 L 51.45501708984375 5.92596435546875 L 51.45501708984375 13.4029541015625 C 51.45501708984375 15.10699462890625 52.3070068359375 16.07696533203125 53.987060546875 16.07696533203125 Z" fill="#00d8ff" stroke="none" stroke-linecap="butt" stroke-linejoin="miter"/></g></g></g></svg><svg height="4762.204856872559" id="kvvll3yexo" overflow="visible" v:setup="{&quot;paper&quot;:&quot;CUSTOM&quot;,&quot;unit&quot;:&quot;px&quot;,&quot;scale&quot;:{&quot;from&quot;:1,&quot;to&quot;:1},&quot;width&quot;:&quot;297mm&quot;,&quot;height&quot;:&quot;210mm&quot;}" viewBox="0 0 1122.5197162628174 793.7008094787598" width="6735.118297576904"><g id="kvwk38bl15e" class="Group.cls NoPrint.cls" transform="translate(1.1253525878906254 1.0363778389296883)" v:abox="{&quot;x&quot;:1.1253525878906254,&quot;y&quot;:1.0363778389296883,&quot;width&quot;:101.87469482421875,&quot;height&quot;:32.963644322140624}" stroke="#363636"><g class="Prim.cls"><g id="kvwk38bm15f" class="NoPrint.cls" transform="translate(15.15447998046875 12.973560921457235)"><path d="M 0 3.4755859375 C 0 1.55010986328125 1.55010986328125 0 3.47552490234375 0 C 5.4010009765625 0 6.95111083984375 1.55010986328125 6.95111083984375 3.4755859375 C 6.95111083984375 5.40106201171875 5.4010009765625 6.951171875 3.47552490234375 6.951171875 C 1.55010986328125 6.951171875 0 5.40106201171875 0 3.4755859375 Z" fill="#ec5242" stroke="#363636" stroke-linecap="butt" stroke-linejoin="miter" stroke-width="0.0693" stroke-opacity="1" fill-opacity="1"/></g><g id="kvwk38bm15g" class="NoPrint.cls" transform="translate(0 9.382557503488485)"><path d="M 18.630126953125 0 C 23.2965087890625 0 27.63153076171875 0.66961669921875 30.90008544921875 1.79486083984375 C 34.83819580078125 3.15069580078125 37.25958251953125 5.20574951171875 37.25958251953125 7.06658935546875 C 37.25958251953125 9.0057373046875 34.69342041015625 11.18896484375 30.46435546875 12.59014892578125 C 27.26708984375 13.6494140625 23.0596923828125 14.20245361328125 18.630126953125 14.20245361328125 C 14.0885009765625 14.20245361328125 9.78790283203125 13.68341064453125 6.5545654296875 12.5784912109375 C 2.4638671875 11.1802978515625 0 8.96881103515625 0 7.06658935546875 C 0 5.2208251953125 2.3118896484375 3.181640625 6.1947021484375 1.82794189453125 C 9.4754638671875 0.68408203125 13.91748046875 0 18.62945556640625 0 Z" fill="none" stroke="#363636" stroke-linecap="butt" stroke-linejoin="miter" stroke-width="1.6627" stroke-opacity="1"/></g><g id="kvwk38bn15h" class="NoPrint.cls" transform="translate(7.520693979550366 0)"><path d="M 4.957760610293384 12.936207405832235 C 7.288998403262134 8.893910042550985 10.034603872012134 5.473133675363485 12.642269887637134 3.203785530832235 C 15.784115590762134 0.46959363630098494 18.774044789980884 -0.6012071449490151 20.385983266543384 0.32829724958223494 C 22.065914907168384 1.297047249582235 22.675167836855884 4.610767952707235 21.776242055605884 8.974171273019735 C 21.097286977480884 12.273182503488485 19.473812856387134 16.193958870675985 17.260861196230884 20.031300179269735 C 14.991940297793384 23.965565315988485 12.393917836855884 27.431751839425985 9.821774282168384 29.680042855050985 C 6.567013539980884 32.525196663644735 3.420285024355884 33.554859749582235 1.7724578759183842 32.604542366769735 C 0.17345885248088422 31.683155648019735 -0.4379913428316158 28.661121956613485 0.3290985009183842 24.621204964425985 C 0.9772308251371342 21.207752815988485 2.603695668887134 17.018055550363485 4.956967153262134 12.936146370675985 Z" fill="none" stroke="#363636" stroke-linecap="butt" stroke-linejoin="miter" stroke-width="1.6627" stroke-opacity="1"/></g><g id="kvwk38bn15i" class="NoPrint.cls" transform="translate(7.530424079087551 0.03772831164223689)"><path d="M 4.953828850599949 20.003886809033748 C 2.6159992607561993 15.966106047314998 1.0242634209124493 11.878215422314998 0.35989574513119926 8.485698332471248 C -0.43990894236880074 4.398173918408748 0.12558178028744926 1.272990812939998 1.7360554130999493 0.34073983637749805 C 3.4142780693499493 -0.630817780810002 6.589448967787449 0.49619637934624805 9.9208088310687 3.454204191846248 C 12.43954662403745 5.690532316846248 15.0259113701312 9.054545988721248 17.245271721693697 12.888225187939998 C 19.520723381849947 16.818706144971248 21.226106682631197 20.800700773877498 21.889558831068697 24.151958098096248 C 22.729036370131197 28.392741789502498 22.049593010756197 31.633037199658748 20.403291741224947 32.586101164502494 C 18.805879631849947 33.510844816846244 15.88278392872495 32.531779875439994 12.76584056934995 29.849528898877498 C 10.13229564747495 27.583354582471248 7.314790764662449 24.081767668408748 4.953828850599949 20.003764738721248 Z" fill="none" stroke="#363636" stroke-linecap="butt" stroke-linejoin="miter" stroke-width="1.6627" stroke-opacity="1"/></g><g id="kvwk38bn15j" class="NoPrint.cls" transform="translate(45.75762939453125 9.536976448800985)"><path d="M 11.4520263671875 15.7919921875 L 7.1920166015625 9.35595703125 C 9.34503173828125 9.16595458984375 11.2850341796875 7.60595703125 11.2850341796875 4.7559814453125 C 11.2850341796875 1.85595703125 9.22705078125 0 6.34002685546875 0 L 0 0 L 0 15.77996826171875 L 1.96405029296875 15.77996826171875 L 1.96405029296875 9.50994873046875 L 5.11102294921875 9.50994873046875 L 9.133056640625 15.77996826171875 Z M 6.10504150390625 7.79498291015625 L 1.96502685546875 7.79498291015625 L 1.96502685546875 1.761962890625 L 6.10504150390625 1.761962890625 C 7.97503662109375 1.761962890625 9.25201416015625 2.991943359375 9.25201416015625 4.7669677734375 C 9.25201416015625 6.5419921875 7.9739990234375 7.7969970703125 6.10504150390625 7.7969970703125 Z M 18.7630615234375 16.074951171875 C 20.633056640625 16.074951171875 22.1700439453125 15.4599609375 23.3060302734375 14.324951171875 L 22.45404052734375 13.16497802734375 C 21.55401611328125 14.08795166015625 20.23004150390625 14.60797119140625 18.92901611328125 14.60797119140625 C 16.46905517578125 14.60797119140625 14.95404052734375 12.80999755859375 14.81201171875 10.657958984375 L 24.06201171875 10.657958984375 L 24.06201171875 10.20794677734375 C 24.06201171875 6.7779541015625 22.02703857421875 4.0799560546875 18.572021484375 4.0799560546875 C 15.3070068359375 4.0799560546875 12.9420166015625 6.75396728515625 12.9420166015625 10.06597900390625 C 12.9420166015625 13.63897705078125 15.3790283203125 16.06597900390625 18.76202392578125 16.06597900390625 Z M 22.31304931640625 9.35498046875 L 14.81304931640625 9.35498046875 C 14.90802001953125 7.60498046875 16.113037109375 5.54498291015625 18.551025390625 5.54498291015625 C 21.154052734375 5.54498291015625 22.2890625 7.6510009765625 22.31304931640625 9.35498046875 Z M 35.8470458984375 15.79095458984375 L 35.8470458984375 7.93597412109375 C 35.8470458984375 5.16796875 33.8370361328125 4.0789794921875 31.42303466796875 4.0789794921875 C 29.55303955078125 4.0789794921875 28.0870361328125 4.6939697265625 26.8570556640625 5.97198486328125 L 27.68505859375 7.20196533203125 C 28.7020263671875 6.11395263671875 29.8150634765625 5.616943359375 31.18701171875 5.616943359375 C 32.843017578125 5.616943359375 34.07403564453125 6.491943359375 34.07403564453125 8.02996826171875 L 34.07403564453125 10.08795166015625 C 33.1510009765625 9.02294921875 31.85003662109375 8.5260009765625 30.28802490234375 8.5260009765625 C 28.3480224609375 8.5260009765625 26.28802490234375 9.73297119140625 26.28802490234375 12.2879638671875 C 26.28802490234375 14.77197265625 28.34600830078125 16.073974609375 30.28802490234375 16.073974609375 C 31.8260498046875 16.073974609375 33.1280517578125 15.52996826171875 34.07403564453125 14.48895263671875 L 34.07403564453125 15.7889404296875 Z M 30.927001953125 14.7969970703125 C 29.27105712890625 14.7969970703125 28.11102294921875 13.7569580078125 28.11102294921875 12.31298828125 C 28.11102294921875 10.845947265625 29.27105712890625 9.80499267578125 30.927001953125 9.80499267578125 C 32.1810302734375 9.80499267578125 33.38702392578125 10.2779541015625 34.07403564453125 11.2249755859375 L 34.07403564453125 13.37799072265625 C 33.3880615234375 14.323974609375 32.1810302734375 14.7979736328125 30.927001953125 14.7979736328125 Z M 44.427001953125 16.074951171875 C 46.509033203125 16.074951171875 47.739013671875 15.22296142578125 48.61505126953125 14.08795166015625 L 47.4320068359375 13 C 46.675048828125 14.0169677734375 45.70501708984375 14.489990234375 44.53204345703125 14.489990234375 C 42.09503173828125 14.489990234375 40.58203125 12.59698486328125 40.58203125 10.06597900390625 C 40.58203125 7.53497314453125 42.09600830078125 5.66595458984375 44.53204345703125 5.66595458984375 C 45.71502685546875 5.66595458984375 46.68505859375 6.115966796875 47.4320068359375 7.15594482421875 L 48.61505126953125 6.0679931640625 C 47.74005126953125 4.93194580078125 46.509033203125 4.08099365234375 44.427001953125 4.08099365234375 C 41.02001953125 4.08099365234375 38.72503662109375 6.6839599609375 38.72503662109375 10.06695556640625 C 38.72503662109375 13.4739990234375 41.02001953125 16.06695556640625 44.427001953125 16.06695556640625 Z M 53.987060546875 16.074951171875 C 55.02703857421875 16.074951171875 55.66705322265625 15.7669677734375 56.1170654296875 15.34197998046875 L 55.5970458984375 14.0169677734375 C 55.36004638671875 14.2769775390625 54.89703369140625 14.489990234375 54.3900146484375 14.489990234375 C 53.61004638671875 14.489990234375 53.23004150390625 13.875 53.23004150390625 13.02294921875 L 53.23004150390625 5.92498779296875 L 55.550048828125 5.92498779296875 L 55.550048828125 4.36395263671875 L 53.23004150390625 4.36395263671875 L 53.23004150390625 1.240966796875 L 51.45501708984375 1.240966796875 L 51.45501708984375 4.36395263671875 L 49.56201171875 4.36395263671875 L 49.56201171875 5.92596435546875 L 51.45501708984375 5.92596435546875 L 51.45501708984375 13.4029541015625 C 51.45501708984375 15.10699462890625 52.3070068359375 16.07696533203125 53.987060546875 16.07696533203125 Z" fill="#363636" stroke="#363636" stroke-linecap="butt" stroke-linejoin="miter" stroke-width="1" stroke-opacity="1" fill-opacity="1"/></g></g></g></svg></svg>